<?xml version="1.0" encoding="utf-8"?>
<!-- Generator: Adobe Illustrator 15.1.0, SVG Export Plug-In . SVG Version: 6.00 Build 0)  -->
<!DOCTYPE svg PUBLIC "-//W3C//DTD SVG 1.1//EN" "http://www.w3.org/Graphics/SVG/1.1/DTD/svg11.dtd">
<svg version="1.1" xmlns="http://www.w3.org/2000/svg" xmlns:xlink="http://www.w3.org/1999/xlink" x="0px" y="0px"
	 width="302.02px" height="106.343px" viewBox="0 0 302.02 106.343" enable-background="new 0 0 302.02 106.343"
	 xml:space="preserve">
<g id="logo">
	<g>
		<rect x="-243.716" y="21.808" fill="none" width="799.999" height="261.615"/>
		<path d="M62.542,70.192V57.88c0-2.304-0.529-3.948-1.584-4.932c-1.057-0.983-3.024-1.476-5.904-1.476H44.398v18.72h-9.72V22.384
			h24.264c2.208,0,4.212,0.349,6.012,1.044c1.8,0.697,3.348,1.656,4.644,2.88c1.296,1.224,2.292,2.688,2.988,4.392
			c0.695,1.705,1.044,3.541,1.044,5.508c0,2.592-0.612,4.885-1.836,6.876c-1.224,1.992-2.988,3.396-5.292,4.212
			c2.112,0.673,3.611,1.705,4.5,3.096c0.888,1.393,1.332,3.48,1.332,6.264v13.536H62.542z M44.398,30.664v12.744h12.528
			c2.688,0,4.583-0.6,5.688-1.8c1.104-1.199,1.656-2.711,1.656-4.536c0-1.872-0.54-3.408-1.62-4.608
			c-1.08-1.199-2.869-1.8-5.364-1.8H44.398z"/>
		<path d="M93.934,71.128c-2.88,0-5.448-0.457-7.704-1.368c-2.256-0.911-4.165-2.184-5.724-3.816
			c-1.561-1.631-2.749-3.6-3.564-5.904c-0.817-2.304-1.224-4.824-1.224-7.56c0-2.783,0.419-5.328,1.26-7.632
			c0.839-2.304,2.052-4.271,3.636-5.904c1.584-1.631,3.492-2.891,5.724-3.78c2.232-0.888,4.763-1.332,7.596-1.332
			c2.783,0,5.28,0.444,7.488,1.332c2.207,0.889,4.091,2.136,5.652,3.744c1.559,1.609,2.76,3.564,3.6,5.868
			c0.839,2.304,1.26,4.873,1.26,7.704c0,2.833-0.42,5.389-1.26,7.668c-0.84,2.28-2.041,4.237-3.6,5.868
			c-1.561,1.632-3.456,2.892-5.688,3.78S96.67,71.128,93.934,71.128z M93.934,63.28c5.712,0,8.568-3.6,8.568-10.8
			c0-7.152-2.856-10.728-8.568-10.728c-5.713,0-8.568,3.576-8.568,10.728C85.366,59.68,88.221,63.28,93.934,63.28z"/>
		<path d="M147.213,57.376c-0.241,2.064-0.828,3.937-1.764,5.616c-0.936,1.681-2.124,3.121-3.564,4.32
			c-1.44,1.2-3.084,2.136-4.932,2.808c-1.848,0.671-3.852,1.008-6.012,1.008c-2.401,0-4.597-0.396-6.588-1.188
			c-1.993-0.792-3.708-1.991-5.148-3.6c-1.44-1.607-2.556-3.6-3.348-5.976s-1.188-5.148-1.188-8.316s0.396-5.904,1.188-8.208
			c0.792-2.304,1.908-4.187,3.348-5.652c1.44-1.464,3.18-2.556,5.22-3.276c2.04-0.72,4.308-1.08,6.804-1.08
			c2.304,0,4.403,0.313,6.3,0.936c1.896,0.624,3.552,1.537,4.968,2.736c1.416,1.2,2.531,2.64,3.348,4.32
			c0.816,1.681,1.296,3.553,1.44,5.616h-9.432c-0.241-1.824-0.972-3.251-2.196-4.284c-1.224-1.031-2.725-1.548-4.5-1.548
			c-1.008,0-1.944,0.169-2.808,0.504c-0.864,0.336-1.62,0.9-2.268,1.692c-0.648,0.792-1.165,1.849-1.548,3.168
			c-0.385,1.321-0.576,2.941-0.576,4.86c0,3.888,0.695,6.768,2.088,8.64c1.392,1.872,2.999,2.808,4.824,2.808
			c1.824,0,3.384-0.504,4.68-1.512c1.296-1.008,2.04-2.472,2.232-4.392H147.213z"/>
		<path d="M171.693,70.192l-7.777-15.912l-4.535,4.68v11.232h-9.432V21.808h9.432v26.424l11.664-13.464h11.447L170.613,47.8
			l11.592,22.392H171.693z"/>
		<path d="M198.404,71.128c-2.879,0-5.447-0.457-7.703-1.368c-2.258-0.911-4.164-2.184-5.725-3.816
			c-1.561-1.631-2.748-3.6-3.564-5.904c-0.816-2.304-1.223-4.824-1.223-7.56c0-2.783,0.42-5.328,1.26-7.632
			c0.84-2.304,2.051-4.271,3.635-5.904c1.584-1.631,3.492-2.891,5.725-3.78c2.232-0.888,4.764-1.332,7.596-1.332
			c2.783,0,5.279,0.444,7.488,1.332c2.207,0.889,4.092,2.136,5.652,3.744c1.559,1.609,2.76,3.564,3.6,5.868s1.26,4.873,1.26,7.704
			c0,2.833-0.42,5.389-1.26,7.668c-0.84,2.28-2.041,4.237-3.6,5.868c-1.561,1.632-3.455,2.892-5.688,3.78
			S201.14,71.128,198.404,71.128z M198.404,63.28c5.713,0,8.568-3.6,8.568-10.8c0-7.152-2.855-10.728-8.568-10.728
			s-8.568,3.576-8.568,10.728C189.835,59.68,192.691,63.28,198.404,63.28z"/>
		<path d="M219.787,70.192V21.808h9.361v48.384H219.787z"/>
		<path d="M233.107,70.192V21.808h9.359v48.384H233.107z"/>
		<path d="M268.603,70.192c-0.289-0.911-0.48-1.968-0.576-3.168c-1.105,1.249-2.568,2.244-4.393,2.988s-3.936,1.116-6.336,1.116
			c-4.08,0-7.068-0.9-8.963-2.7c-1.898-1.8-2.846-4.14-2.846-7.02c0-2.543,0.408-4.572,1.225-6.084
			c0.816-1.512,1.943-2.7,3.385-3.564c1.439-0.864,3.154-1.5,5.148-1.908c1.99-0.407,4.162-0.78,6.516-1.116
			c2.352-0.335,3.936-0.78,4.752-1.332c0.814-0.551,1.223-1.451,1.223-2.7c0-1.152-0.539-2.052-1.619-2.7s-2.533-0.972-4.355-0.972
			c-2.16,0-3.709,0.48-4.645,1.44c-0.936,0.961-1.523,2.232-1.764,3.816h-8.713c0.047-1.824,0.348-3.503,0.9-5.04
			c0.551-1.536,1.439-2.855,2.664-3.96c1.225-1.104,2.82-1.956,4.789-2.556c1.967-0.6,4.367-0.9,7.199-0.9
			c2.783,0,5.148,0.313,7.092,0.936c1.943,0.624,3.504,1.524,4.68,2.7c1.176,1.177,2.027,2.641,2.557,4.392
			c0.527,1.753,0.791,3.733,0.791,5.94v22.392H268.603z M267.955,52.84c-0.48,0.48-1.176,0.864-2.088,1.152
			c-0.912,0.288-2.232,0.601-3.961,0.936c-2.688,0.529-4.535,1.201-5.543,2.016c-1.008,0.817-1.512,1.992-1.512,3.528
			c0,2.641,1.512,3.96,4.535,3.96c1.199,0,2.316-0.204,3.348-0.612c1.033-0.407,1.92-0.959,2.664-1.656
			c0.744-0.695,1.344-1.512,1.801-2.448c0.455-0.936,0.684-1.932,0.684-2.988L267.955,52.84z"/>
	</g>
	<rect x="-136.364" y="-104.657" fill="none" width="2.02" height="0"/>
	<g>
		<rect x="-204.041" y="219.192" fill="none" width="295.959" height="115.151"/>
	</g>
</g>
<g id="favicon" display="none">
	<g display="inline">
		<rect x="116.384" y="204.041" fill="none" width="79.798" height="93.939"/>
		<path d="M163.543,244.361v-10.26c0-1.921-0.44-3.291-1.319-4.111c-0.881-0.818-2.521-1.229-4.92-1.229h-8.88v15.601h-8.101v-39.84
			h20.22c1.84,0,3.511,0.29,5.011,0.869c1.5,0.58,2.79,1.381,3.87,2.4c1.079,1.02,1.909,2.24,2.489,3.66s0.87,2.95,0.87,4.59
			c0,2.16-0.51,4.07-1.53,5.73c-1.02,1.66-2.489,2.83-4.409,3.51c1.76,0.561,3.009,1.42,3.75,2.58c0.739,1.16,1.109,2.9,1.109,5.22
			v11.28H163.543z M148.424,211.42v10.62h10.439c2.24,0,3.819-0.5,4.74-1.5c0.92-1,1.38-2.26,1.38-3.78c0-1.56-0.45-2.839-1.35-3.84
			c-0.9-0.999-2.391-1.5-4.471-1.5H148.424z"/>
	</g>
	<rect x="-136.364" y="-103.657" display="inline" fill="none" width="2.02" height="0"/>
	<g display="inline">
		<rect x="-204.041" y="219.192" fill="none" width="295.959" height="115.151"/>
	</g>
</g>
</svg>
